<svg width="26" height="26" viewBox="0 0 26 26" fill="none" xmlns="http://www.w3.org/2000/svg">
<path d="M25.375 13V12.625H25.3634C25.1651 5.96729 19.704 0.625 12.997 0.625C6.16443 0.625 0.625 6.16904 0.625 13C0.625 19.8312 6.17073 25.375 13.003 25.375C19.8356 25.375 25.375 19.831 25.375 13Z" fill="#DD1438" stroke="#191B1F" stroke-width="0.75"/>
<path d="M18.5917 8.04584C18.3478 7.42583 17.9463 6.88205 17.494 6.42466C17.0163 5.97744 16.4623 5.61662 15.8576 5.3676C15.4663 5.21005 15.0546 5.10333 14.6328 5.05251C13.1336 4.83398 11.548 5.29645 10.3995 6.46024C9.07304 7.79682 8.61057 9.75341 9.19501 11.5779V11.5931C8.8291 11.8269 8.49368 12.1013 8.19384 12.4164C7.73137 12.9043 7.36038 13.4735 7.11645 14.0935C6.87759 14.7186 6.7607 15.3792 6.76578 16.045C6.76578 16.7209 6.90808 17.3663 7.17235 17.966C7.41629 18.586 7.81777 19.1298 8.27007 19.5872C8.74778 20.0344 9.30173 20.3952 9.90649 20.6443C10.5011 20.8882 11.1414 21 11.7869 21C11.6954 21 11.6039 21 11.5175 20.9898C12.9303 21.0661 14.3025 20.5325 15.2935 19.5262C16.6199 18.1947 17.0925 16.233 16.5132 14.4492C16.9045 14.2104 17.2602 13.9207 17.5753 13.5904C18.0378 13.1025 18.4088 12.5333 18.6527 11.9133C18.8916 11.2882 19.0085 10.6275 19.0034 9.96178C19.0034 9.30111 18.8662 8.64552 18.5968 8.04076M14.2516 8.40667C14.2161 8.24912 14.2008 8.0865 14.2008 7.92387C14.3838 7.95436 14.5566 8.01027 14.7243 8.08141C14.9682 8.18306 15.1766 8.34568 15.3392 8.5388C15.4968 8.737 15.634 8.95045 15.7153 9.1893C15.8017 9.43324 15.8271 9.67718 15.8271 9.92112C15.8017 10.3836 15.6035 10.8206 15.2782 11.151L14.2516 8.40667ZM15.4205 11.5372C15.451 11.5067 15.4815 11.4762 15.512 11.4457C15.7204 11.2272 15.8525 10.9884 15.9643 10.7139C16.0761 10.4395 16.0964 10.1396 16.0964 9.8703C16.0964 9.57046 16.0202 9.30111 15.9084 9.05717C15.7966 8.81323 15.6136 8.58962 15.4256 8.40667C15.2376 8.24404 14.9936 8.07633 14.7548 7.99502C14.582 7.93404 14.3889 7.90354 14.1957 7.89338C14.2008 7.57829 14.2821 7.2632 14.4295 6.98369C14.648 7.02435 14.8564 7.09041 15.0648 7.18697C15.4408 7.3496 15.7356 7.59354 15.9999 7.86289C16.2438 8.16273 16.4623 8.4829 16.5945 8.83864C16.7266 9.19438 16.7825 9.56537 16.7825 9.94653C16.7825 10.3277 16.7063 10.7088 16.5386 11.0341C16.4064 11.3746 16.193 11.6795 15.9236 11.9234C15.8372 12.0048 15.7458 12.0759 15.6441 12.142L15.4205 11.5372ZM15.7864 12.513C15.9287 12.4062 16.0609 12.2944 16.1828 12.1725C16.4573 11.8726 16.6961 11.4966 16.8282 11.1154C16.9909 10.7088 17.0468 10.2972 17.0468 9.89571C17.0468 9.49423 16.9451 9.08258 16.7825 8.70651C16.6199 8.33552 16.3861 8.00518 16.0914 7.73075C15.7966 7.46649 15.4764 7.24288 15.1004 7.11074C14.8869 7.03959 14.6735 6.98369 14.4498 6.95828C14.5413 6.78549 14.6582 6.62287 14.8005 6.48057C14.9123 6.36876 15.0292 6.27729 15.1563 6.19597C15.2579 6.23155 15.3545 6.2722 15.451 6.31794C15.9186 6.51614 16.3404 6.8109 16.686 7.18189C17.0366 7.53764 17.3009 8.0001 17.4889 8.45749C17.677 8.94536 17.7532 9.45865 17.7532 9.94653C17.7329 10.4497 17.621 10.9426 17.433 11.4102C17.245 11.8421 16.9502 12.2436 16.5996 12.5994C16.4166 12.7823 16.2184 12.9449 16.005 13.0822L15.7915 12.518L15.7864 12.513ZM10.5468 19.8057C10.4655 19.7752 10.3893 19.7447 10.3131 19.7041C9.84551 19.5059 9.4237 19.2111 9.07812 18.8401C8.72746 18.4844 8.46319 18.0219 8.27515 17.5645C8.09728 17.0919 8.0058 16.5837 8.01089 16.0806C8.03122 15.5774 8.13794 15.0845 8.33106 14.6169C8.51909 14.185 8.81385 13.7835 9.16451 13.4277C9.33222 13.26 9.51517 13.1076 9.71337 12.9754L9.9319 13.5446C9.80993 13.6412 9.69305 13.7428 9.58124 13.8495C9.30681 14.1494 9.06795 14.5255 8.93582 14.9066C8.7732 15.3132 8.71729 15.7248 8.71729 16.1263C8.71729 16.5278 8.81893 16.9344 8.98156 17.3155C9.14419 17.6865 9.37796 18.0168 9.67272 18.2913C9.96748 18.5555 10.2876 18.7791 10.6637 18.9113C10.8568 18.9773 11.055 19.0282 11.2532 19.0536C11.1618 19.2213 11.0449 19.3737 10.9127 19.511C10.8009 19.6228 10.679 19.7193 10.5468 19.8006M10.6993 18.83C10.3283 18.6623 10.0285 18.4183 9.7642 18.154C9.52026 17.8542 9.30681 17.534 9.1696 17.1783C9.04254 16.8226 8.97648 16.4465 8.98156 16.0704C8.98156 15.6893 9.05779 15.3081 9.2255 14.9828C9.35763 14.6373 9.57616 14.3374 9.84043 14.0935C9.91666 14.0274 9.99289 13.9664 10.0742 13.9055L10.308 14.5204C10.308 14.5204 10.2724 14.556 10.2572 14.5763C10.0488 14.7948 9.91666 15.0337 9.80485 15.3081C9.69305 15.5825 9.67272 15.8824 9.67272 16.1517C9.67272 16.4516 9.74895 16.7158 9.86075 16.9598C9.97256 17.2037 10.1555 17.4273 10.3435 17.6103C10.5316 17.7729 10.7755 17.9406 11.0144 18.0168C11.177 18.0727 11.3498 18.1032 11.5226 18.1185C11.5073 18.4336 11.426 18.7436 11.2736 19.0231C11.0754 18.9824 10.8822 18.9164 10.6993 18.83ZM11.4819 17.6001C11.5175 17.7627 11.5277 17.9254 11.5226 18.088C11.36 18.0524 11.1973 18.0067 11.0449 17.9406C10.8009 17.839 10.5926 17.6763 10.4299 17.4832C10.2724 17.285 10.1352 17.0716 10.059 16.8327C9.97256 16.5888 9.94715 16.3448 9.94715 16.1009C9.97256 15.6537 10.1555 15.2319 10.4604 14.9066L11.487 17.6052L11.4819 17.6001ZM8.39204 19.5059C7.92957 19.0383 7.61449 18.5047 7.37055 17.9101C7.16218 17.3409 7.05038 16.6904 7.05038 16.0704C7.08087 15.4504 7.213 14.8304 7.45694 14.2612C7.70088 13.6869 8.07187 13.1736 8.50385 12.7417C8.76303 12.4825 9.05779 12.2538 9.37796 12.0657L9.54567 12.4977C9.29156 12.6654 9.05779 12.8535 8.85451 13.0822C8.47844 13.4786 8.18876 13.9461 7.99564 14.4594C7.8076 14.9676 7.73137 15.5165 7.73137 16.0552C7.76187 16.5888 7.86351 17.1326 8.08204 17.6204C8.30056 18.1083 8.61057 18.5504 8.99681 18.9214C9.37796 19.2823 9.8201 19.5669 10.308 19.7651C10.3791 19.7905 10.4452 19.8159 10.5163 19.8413C10.1962 20.0293 9.83534 20.1361 9.46944 20.1462C9.3373 20.1462 9.20517 20.1361 9.07812 20.1056C8.83418 19.9328 8.61057 19.7346 8.40729 19.516M18.3173 11.7608C18.0734 12.3351 17.7024 12.8484 17.2704 13.2804C16.996 13.5548 16.6809 13.7936 16.3455 13.9918L16.1828 13.5599C16.4573 13.3871 16.7063 13.1787 16.9299 12.9449C17.306 12.5435 17.6007 12.081 17.7888 11.5677C17.9768 11.0595 18.053 10.5157 18.053 9.97194C18.0225 9.43832 17.9209 8.89454 17.7024 8.40667C17.2704 7.43091 16.4725 6.66352 15.4815 6.26712C15.39 6.23155 15.2986 6.20105 15.202 6.17564C15.6543 5.9063 16.193 5.81482 16.7114 5.93171C16.9553 6.10958 17.1789 6.30778 17.3822 6.52122C17.8447 6.98369 18.1597 7.51731 18.4037 8.11699C18.6121 8.6811 18.7239 9.33668 18.7239 9.95669C18.6934 10.5767 18.5612 11.2018 18.3173 11.7659" fill="white"/>
</svg>
